<?xml version="1.0" encoding="UTF-8" standalone="no"?>
<!DOCTYPE svg PUBLIC "-//W3C//DTD SVG 1.1//EN" "http://www.w3.org/Graphics/SVG/1.1/DTD/svg11.dtd">
<svg version="1.1" xmlns="http://www.w3.org/2000/svg" xmlns:xlink="http://www.w3.org/1999/xlink" preserveAspectRatio="xMidYMid meet" viewBox="0 0 640 213" width="640" height="213"><defs><path d="M339.57 41.61L283.24 41.61" id="cfYqaR3vr"></path><path d="M542.66 171.74C542.67 171.58 542.69 171.43 542.69 171.27C542.69 168.41 542.69 145.52 542.69 142.65C542.69 135.02 536 128.8 527.79 128.8C526.93 128.8 522.61 128.8 514.84 128.8C517.14 127.34 518.42 126.52 518.68 126.36C525.45 122.03 527.18 113.39 522.53 107.1C521.66 105.92 514.69 96.48 513.82 95.3C511.56 92.25 508.17 90.2 504.26 89.52C500.34 88.84 496.38 89.63 493.1 91.72C492.3 92.23 488.31 94.78 481.12 99.37C481.12 64.3 481.12 44.81 481.12 40.92C490.05 38.11 496.51 30.25 496.51 21.01C496.51 9.42 486.37 0 473.92 0C461.46 0 451.32 9.43 451.32 21.01C451.32 30.25 457.78 38.11 466.71 40.92C466.71 45.01 466.71 65.5 466.71 102.38C457 98.69 451.61 96.64 450.53 96.23C442.92 93.34 434.21 96.74 431.1 103.81C430.52 105.14 425.86 115.74 425.28 117.06C423.77 120.48 423.79 124.25 425.33 127.66C425.51 128.05 425.71 128.43 425.92 128.8C425.33 128.8 420.63 128.8 420.04 128.8C411.83 128.8 405.15 135.02 405.15 142.65C405.15 145.52 405.15 168.41 405.15 171.27C405.15 171.43 405.16 171.58 405.17 171.74C403.52 171.74 390.38 171.74 388.74 171.74C388.74 171.59 388.76 171.44 388.76 171.29C388.76 168.43 388.76 145.5 388.76 142.64C388.76 135.59 383.06 129.77 375.73 128.92C376.82 127.91 385.56 119.78 386.65 118.76C389.46 116.15 389.46 111.91 386.65 109.3C383.84 106.68 379.28 106.68 376.47 109.3C375.38 110.31 366.68 118.41 365.59 119.42C364.67 109.25 355.93 101.11 344.98 100.26C345.3 99.96 347.85 97.6 348.17 97.3C350.98 94.68 350.98 90.44 348.17 87.83C345.36 85.22 340.8 85.22 337.99 87.83C337.03 88.72 329.4 95.81 328.45 96.7C328.05 96.22 327.63 95.76 327.19 95.3C327.19 89.86 327.19 46.35 327.19 40.92C336.13 38.11 342.58 30.25 342.58 21.01C342.58 9.42 332.45 0 319.99 0C307.54 0 297.4 9.43 297.4 21.01C297.4 30.25 303.85 38.11 312.79 40.92C312.79 45.52 312.79 82.33 312.79 86.93C310.18 86.24 307.44 85.87 304.6 85.87C287.9 85.87 274.31 98.5 274.31 114.03C274.31 116.07 274.55 118.05 274.99 119.97C273.08 118.19 257.74 103.92 255.82 102.14C253.01 99.52 248.44 99.52 245.64 102.14C242.82 104.75 242.82 108.99 245.64 111.61C247.5 113.34 262.39 127.19 264.25 128.92C256.92 129.77 251.22 135.59 251.22 142.64C251.22 145.5 251.22 168.42 251.22 171.29C251.22 171.44 251.24 171.59 251.25 171.74C249.6 171.74 236.46 171.74 234.81 171.74C234.82 171.59 234.84 171.44 234.84 171.29C234.84 168.42 234.84 145.5 234.84 142.64C234.84 135.01 228.16 128.8 219.96 128.8C219.09 128.8 214.77 128.8 207 128.8C209.3 127.33 210.58 126.52 210.83 126.35C217.6 122.03 219.33 113.39 214.68 107.09C213.81 105.91 206.84 96.48 205.97 95.3C203.72 92.25 200.32 90.19 196.41 89.52C192.49 88.84 188.53 89.62 185.26 91.72C184.46 92.23 180.46 94.78 173.27 99.37C173.27 64.3 173.27 44.81 173.27 40.91C182.2 38.11 188.66 30.25 188.66 21.01C188.66 9.42 178.52 0 166.07 0C153.61 0 143.47 9.43 143.47 21.01C143.47 30.25 149.93 38.11 158.87 40.91C158.87 45.01 158.87 65.5 158.87 102.38C149.16 98.69 143.76 96.64 142.68 96.23C135.08 93.34 126.36 96.74 123.26 103.81C122.67 105.13 118.01 115.73 117.43 117.06C115.93 120.48 115.95 124.25 117.48 127.66C117.66 128.05 117.86 128.43 118.07 128.8C117.48 128.8 112.77 128.8 112.18 128.8C103.97 128.8 97.3 135.01 97.3 142.64C97.3 145.5 97.3 168.42 97.3 171.29C97.3 171.44 97.32 171.59 97.32 171.74C96.5 171.74 89.93 171.74 89.11 171.74C80.89 171.74 74.21 177.95 74.21 185.59C74.21 187.02 74.21 198.47 74.21 199.9C74.21 207.54 80.89 213.75 89.11 213.75C135.28 213.75 504.7 213.75 550.88 213.75C559.1 213.75 565.78 207.54 565.78 199.9C565.78 198.47 565.78 187.02 565.78 185.59C565.78 177.95 559.1 171.74 550.88 171.74C550.88 171.74 543.48 171.74 542.66 171.74ZM501.25 102.76C501.3 102.73 501.42 102.65 501.63 102.68C501.82 102.72 501.91 102.84 501.94 102.88C502.81 104.06 509.79 113.5 510.66 114.68C510.81 114.88 510.75 115.17 510.53 115.32C509.12 116.22 502.07 120.71 489.4 128.8L463.87 128.8C463.38 128.14 463.11 127.77 463.06 127.7C462.9 127.49 462.96 127.2 463.18 127.06C470.8 122.2 493.64 107.62 501.25 102.76ZM482.1 21.01C482.1 25.21 478.43 28.62 473.91 28.62C469.4 28.62 465.72 25.21 465.72 21.01C465.72 16.81 469.39 13.39 473.91 13.39C478.43 13.39 482.1 16.81 482.1 21.01ZM444.43 108.87C444.53 108.64 444.82 108.53 445.08 108.62C445.98 108.96 450.48 110.67 458.58 113.75C456.45 115.11 455.27 115.87 455.03 116.02C451.75 118.11 449.54 121.27 448.82 124.9C448.72 125.41 448.65 125.92 448.61 126.42C447.64 126.05 439.85 123.09 438.88 122.72C438.63 122.62 438.5 122.36 438.61 122.12C438.61 122.12 443.85 110.2 444.43 108.87ZM343.08 128.8C338.56 128.8 334.88 125.38 334.88 121.18C334.88 116.98 338.56 113.57 343.08 113.57C347.59 113.57 351.27 116.98 351.27 121.18C351.27 125.38 347.59 128.8 343.08 128.8ZM328.18 21C328.18 25.2 324.5 28.62 319.99 28.62C315.47 28.62 311.8 25.2 311.8 21C311.8 16.8 315.47 13.39 319.99 13.39C324.5 13.39 328.18 16.8 328.18 21ZM320.48 114.02C320.48 122.17 313.36 128.8 304.6 128.8C295.84 128.8 288.71 122.17 288.71 114.02C288.71 105.88 295.84 99.25 304.6 99.25C313.36 99.25 320.48 105.88 320.48 114.02ZM265.62 142.63C265.62 142.39 265.83 142.19 266.1 142.19C268.02 142.19 277.62 142.19 294.91 142.19C293.05 143.91 292.01 144.87 291.81 145.07C289 147.68 289 151.92 291.81 154.54C293.21 155.84 295.06 156.5 296.9 156.5C298.74 156.5 300.58 155.84 301.99 154.54C302.88 153.71 307.3 149.6 315.27 142.19C350.44 142.19 369.97 142.19 373.88 142.19C374.14 142.19 374.36 142.38 374.36 142.63C374.36 145.5 374.36 168.42 374.36 171.28C374.36 171.53 374.14 171.73 373.88 171.73C372.12 171.73 363.34 171.73 347.53 171.73C344.1 165.36 342.2 161.83 341.82 161.12C340.04 157.81 335.72 156.47 332.16 158.13C328.6 159.78 327.16 163.8 328.94 167.11C329.11 167.42 329.93 168.96 331.42 171.73C292.23 171.73 270.45 171.73 266.1 171.73C265.83 171.73 265.62 171.53 265.62 171.28C265.62 171.28 265.62 145.5 265.62 142.63ZM193.41 102.75C193.45 102.73 193.57 102.65 193.77 102.68C193.98 102.71 194.07 102.83 194.09 102.87C194.96 104.05 201.93 113.49 202.8 114.67C202.96 114.88 202.9 115.16 202.68 115.31C201.27 116.21 194.22 120.7 181.55 128.8L156.02 128.8C155.53 128.13 155.26 127.77 155.21 127.69C155.05 127.48 155.11 127.19 155.34 127.05C162.95 122.19 185.79 107.61 193.41 102.75ZM174.26 21C174.26 25.2 170.58 28.62 166.06 28.62C161.55 28.62 157.87 25.2 157.87 21C157.87 16.8 161.55 13.39 166.06 13.39C170.58 13.39 174.26 16.8 174.26 21ZM136.58 108.86C136.68 108.63 136.98 108.52 137.23 108.61C138.13 108.96 142.63 110.67 150.73 113.74C148.6 115.1 147.42 115.86 147.18 116.01C143.31 118.48 141.09 122.37 140.77 126.42C139.8 126.05 132 123.08 131.03 122.71C130.78 122.62 130.65 122.35 130.76 122.11C130.76 122.11 136 110.19 136.58 108.86ZM111.69 142.63C111.69 142.38 111.91 142.18 112.17 142.18C113.45 142.18 119.83 142.18 131.32 142.18C129.83 144.95 129 146.49 128.84 146.8C127.06 150.11 128.5 154.13 132.06 155.78C133.09 156.27 134.19 156.49 135.27 156.49C137.92 156.49 140.46 155.14 141.72 152.79C142.1 152.09 144 148.55 147.43 142.18L185.2 142.18C183.71 144.95 182.88 146.49 182.71 146.8C180.93 150.11 182.38 154.13 185.93 155.78C186.97 156.26 188.07 156.49 189.15 156.49C191.79 156.49 194.33 155.13 195.59 152.79C195.97 152.08 197.88 148.55 201.3 142.18C212.49 142.18 218.71 142.18 219.96 142.18C220.22 142.18 220.44 142.38 220.44 142.63C220.44 145.49 220.44 168.41 220.44 171.28C220.44 171.52 220.22 171.73 219.96 171.73C217.07 171.73 202.67 171.73 176.74 171.73C168.77 164.32 164.34 160.2 163.46 159.38C160.65 156.76 156.09 156.76 153.28 159.38C150.46 161.99 150.46 166.23 153.28 168.84C153.48 169.03 154.52 170 156.38 171.73C129.86 171.73 115.12 171.73 112.17 171.73C111.91 171.73 111.69 171.52 111.69 171.28C111.69 171.28 111.69 145.49 111.69 142.63ZM551.37 199.89C551.37 200.14 551.15 200.35 550.87 200.35C504.7 200.35 135.27 200.35 89.1 200.35C88.82 200.35 88.6 200.14 88.6 199.89C88.6 198.46 88.6 187.01 88.6 185.58C88.6 185.32 88.82 185.12 89.1 185.12C122.96 185.12 393.87 185.12 427.73 185.12C431.71 185.12 434.93 182.12 434.93 178.42C434.93 174.72 431.71 171.73 427.73 171.73C426.96 171.73 420.81 171.73 420.04 171.73C419.77 171.73 419.54 171.52 419.54 171.26C419.54 168.4 419.54 145.51 419.54 142.64C419.54 142.39 419.77 142.18 420.04 142.18C421.28 142.18 427.49 142.18 438.67 142.18C442.1 148.55 444 152.09 444.38 152.79C445.64 155.14 448.19 156.49 450.83 156.49C451.91 156.49 453.01 156.27 454.04 155.79C457.6 154.13 459.04 150.11 457.26 146.81C457.1 146.5 456.27 144.96 454.78 142.18L483.54 142.18C478.79 148.82 476.14 152.5 475.62 153.24C473.41 156.32 474.3 160.48 477.61 162.53C478.84 163.29 480.23 163.65 481.6 163.65C483.93 163.65 486.21 162.6 487.6 160.67C488.48 159.43 492.9 153.27 500.85 142.18C517.01 142.18 525.99 142.18 527.78 142.18C528.06 142.18 528.28 142.39 528.28 142.64C528.28 145.51 528.28 168.4 528.28 171.26C528.28 171.52 528.06 171.73 527.78 171.73C527.02 171.73 523.21 171.73 516.35 171.73C517.84 168.95 518.67 167.41 518.83 167.1C520.61 163.8 519.17 159.77 515.61 158.12C512.05 156.47 507.73 157.81 505.95 161.12C505.57 161.82 503.67 165.36 500.25 171.73C475.21 171.73 461.3 171.73 458.52 171.73C454.54 171.73 451.32 174.72 451.32 178.42C451.32 182.12 454.54 185.12 458.52 185.12C467.75 185.12 541.64 185.12 550.87 185.12C551.15 185.12 551.37 185.32 551.37 185.58C551.37 188.44 551.37 197.03 551.37 199.89Z" id="iZev0MnPA"></path></defs><g><g><g><use xlink:href="#cfYqaR3vr" opacity="1" fill="#000000" fill-opacity="0"></use><g><use xlink:href="#cfYqaR3vr" opacity="1" fill-opacity="0" stroke="#000000" stroke-width="0" stroke-opacity="0"></use></g></g><g><use xlink:href="#iZev0MnPA" opacity="1" fill="#000000" fill-opacity="1"></use><g><use xlink:href="#iZev0MnPA" opacity="1" fill-opacity="0" stroke="#000000" stroke-width="1" stroke-opacity="0"></use></g></g></g></g></svg>