<?xml version="1.0" encoding="UTF-8" standalone="no"?>
<!DOCTYPE svg PUBLIC "-//W3C//DTD SVG 1.1//EN" "http://www.w3.org/Graphics/SVG/1.1/DTD/svg11.dtd">
<svg version="1.1" xmlns="http://www.w3.org/2000/svg" xmlns:xlink="http://www.w3.org/1999/xlink" preserveAspectRatio="xMidYMid meet" viewBox="0 0 350 350" width="350" height="350"><defs><path d="M105.9 105.64C110.66 91.63 125.86 84.14 139.86 88.9C147.74 91.57 153.93 97.76 156.6 105.64C156.98 106.87 159.97 116.73 160.35 117.96C163.5 128.36 164.16 139.35 162.28 150.05C160.56 159.05 154.84 166.79 146.74 171.07C147.16 180.45 150.51 255.46 150.93 264.83C151.49 270.07 149.8 275.29 146.26 279.2C138.67 287.5 125.78 288.08 117.48 280.48C117.03 280.07 116.6 279.64 116.19 279.2C112.74 275.4 111.04 270.33 111.52 265.22C111.94 255.81 115.32 180.48 115.74 171.06C107.64 166.78 101.94 159.04 100.22 150.04C98.34 139.35 99 128.36 102.15 117.96C102.9 115.5 105.52 106.87 105.9 105.64ZM123.82 161.95C126.18 162.84 127.71 165.15 127.59 167.67C127.15 177.52 123.6 256.3 123.16 266.15C122.96 268.08 123.59 270 124.91 271.43C128.42 274.91 134.08 274.91 137.59 271.43C138.97 269.89 139.6 267.81 139.31 265.76C138.87 255.95 135.35 177.48 134.91 167.67C134.79 165.15 136.32 162.84 138.68 161.95C144.91 159.79 149.52 154.49 150.79 148.01C152.35 139.13 151.8 130.01 149.18 121.38C148.81 120.15 145.81 110.28 145.44 109.05C142.54 101.21 133.84 97.21 126 100.11C121.86 101.64 118.6 104.91 117.06 109.05C116.69 110.28 113.69 120.15 113.32 121.38C110.71 130.01 110.16 139.13 111.71 148.01C112.98 154.49 117.59 159.79 123.82 161.95Z" id="d2Ou993VcA"></path><path d="M198.33 93.33C198.33 96.67 198.33 113.37 198.33 143.42C207.81 152.89 213.07 158.16 214.12 159.21C215.29 160.37 215.91 161.98 215.83 163.63C215.32 173.83 211.24 255.5 210.73 265.71C210.61 267.91 211.41 270.06 212.93 271.65C216.13 274.87 221.33 274.9 224.55 271.7C224.57 271.69 224.58 271.67 224.6 271.65C226.13 270.06 226.93 267.91 226.81 265.71C226.29 255.5 222.18 173.83 221.67 163.62C221.59 161.98 222.2 160.37 223.37 159.21C224.42 158.16 229.69 152.89 239.17 143.42C239.17 113.37 239.17 96.67 239.17 93.33C239.17 90.11 241.78 87.5 245 87.5C248.22 87.5 250.83 90.11 250.83 93.33C250.83 98.58 250.83 140.58 250.83 145.83C250.83 147.38 250.22 148.86 249.12 149.96C248.08 151 242.86 156.23 233.46 165.63C236.44 225.34 238.1 258.51 238.43 265.14C238.96 276.01 230.58 285.25 219.71 285.78C208.84 286.31 199.6 277.93 199.07 267.06C199.04 266.42 199.04 265.78 199.07 265.14C199.4 258.51 201.06 225.34 204.04 165.63C194.64 156.23 189.42 151 188.38 149.96C187.28 148.86 186.67 147.38 186.67 145.83C186.67 140.58 186.67 98.58 186.67 93.33C186.67 90.11 189.28 87.5 192.5 87.5C195.72 87.5 198.33 90.11 198.33 93.33Z" id="b41Dr1CuaR"></path><path d="M233.33 93.33C233.33 98 233.33 135.33 233.33 140C233.33 143.22 230.72 145.83 227.5 145.83C224.28 145.83 221.67 143.22 221.67 140C221.67 135.33 221.67 98 221.67 93.33C221.67 90.11 224.28 87.5 227.5 87.5C230.72 87.5 233.33 90.11 233.33 93.33Z" id="a2qTcQZ2H"></path><path d="M215.83 93.33C215.83 98 215.83 135.33 215.83 140C215.83 143.22 213.22 145.83 210 145.83C206.78 145.83 204.17 143.22 204.17 140C204.17 135.33 204.17 98 204.17 93.33C204.17 90.11 206.78 87.5 210 87.5C213.22 87.5 215.83 90.11 215.83 93.33Z" id="a9flI6jSVe"></path><path d="M350 175C350 271.65 271.65 350 175 350C78.35 350 0 271.65 0 175C0.11 78.4 78.4 0.11 175 0C271.65 0 350 78.35 350 175ZM338.33 175C338.33 84.79 265.21 11.67 175 11.67C84.79 11.67 11.67 84.79 11.67 175C11.77 265.16 84.84 338.23 175 338.33C265.21 338.33 338.33 265.21 338.33 175Z" id="a1EKuPdRll"></path><path d="M162.44 279.26C162.51 279.27 162.59 279.28 162.66 279.29C162.66 279.29 162.64 279.28 162.64 279.28C170.85 280.24 179.15 280.24 187.36 279.28C190.56 278.91 193.46 281.2 193.84 284.4C194.21 287.6 191.92 290.5 188.72 290.87C179.61 291.94 170.41 291.94 161.3 290.87C158.1 290.56 155.75 287.71 156.06 284.5C156.38 281.29 159.23 278.95 162.44 279.26Z" id="aF1d7gTKj"></path><path d="M93.97 99.11C93.98 99.12 93.98 99.13 93.99 99.13C96.45 101.21 96.77 104.89 94.69 107.35C59.52 149.1 62.21 210.84 100.88 249.37C103.16 251.65 103.17 255.34 100.9 257.63C98.62 259.91 94.93 259.92 92.64 257.64C49.67 214.83 46.67 146.23 85.75 99.83C87.82 97.36 91.5 97.04 93.97 99.11Z" id="arBLnleTx"></path><path d="M214.1 77.1C214.11 77.1 214.11 77.1 214.12 77.1C214.12 77.1 214.11 77.1 214.09 77.1C214.09 77.1 214.1 77.1 214.1 77.1Z" id="ez3vgjnJZ"></path><path d="M216.15 65.81C219.16 66.95 220.69 70.31 219.56 73.33C218.7 75.6 216.53 77.1 214.1 77.1C213.4 77.1 212.71 76.97 212.06 76.73C192.29 69.33 170.75 68.01 150.23 72.93C147.09 73.69 143.94 71.77 143.19 68.63C142.43 65.5 144.35 62.35 147.48 61.59C170.28 56.13 194.19 57.6 216.15 65.81Z" id="atLuxMWzT"></path><path d="M280 175C280.06 152.8 273.03 131.16 259.93 113.24C257.99 110.66 258.51 107 261.09 105.07C263.66 103.13 267.32 103.65 269.25 106.23C269.29 106.27 269.32 106.32 269.35 106.36C303.08 152.73 298.12 216.73 257.65 257.34C255.37 259.63 251.67 259.63 249.38 257.35C247.1 255.07 247.1 251.37 249.38 249.08C269.05 229.45 280.07 202.79 280 175Z" id="c3o598EIs"></path></defs><g><g><g><use xlink:href="#d2Ou993VcA" opacity="1" fill="#000000" fill-opacity="1"></use><g><use xlink:href="#d2Ou993VcA" opacity="1" fill-opacity="0" stroke="#000000" stroke-width="1" stroke-opacity="0"></use></g></g><g><use xlink:href="#b41Dr1CuaR" opacity="1" fill="#000000" fill-opacity="1"></use><g><use xlink:href="#b41Dr1CuaR" opacity="1" fill-opacity="0" stroke="#000000" stroke-width="1" stroke-opacity="0"></use></g></g><g><use xlink:href="#a2qTcQZ2H" opacity="1" fill="#000000" fill-opacity="1"></use><g><use xlink:href="#a2qTcQZ2H" opacity="1" fill-opacity="0" stroke="#000000" stroke-width="1" stroke-opacity="0"></use></g></g><g><use xlink:href="#a9flI6jSVe" opacity="1" fill="#000000" fill-opacity="1"></use><g><use xlink:href="#a9flI6jSVe" opacity="1" fill-opacity="0" stroke="#000000" stroke-width="1" stroke-opacity="0"></use></g></g><g><use xlink:href="#a1EKuPdRll" opacity="1" fill="#000000" fill-opacity="1"></use><g><use xlink:href="#a1EKuPdRll" opacity="1" fill-opacity="0" stroke="#000000" stroke-width="1" stroke-opacity="0"></use></g></g><g><use xlink:href="#aF1d7gTKj" opacity="1" fill="#000000" fill-opacity="1"></use><g><use xlink:href="#aF1d7gTKj" opacity="1" fill-opacity="0" stroke="#000000" stroke-width="1" stroke-opacity="0"></use></g></g><g><use xlink:href="#arBLnleTx" opacity="1" fill="#000000" fill-opacity="1"></use><g><use xlink:href="#arBLnleTx" opacity="1" fill-opacity="0" stroke="#000000" stroke-width="1" stroke-opacity="0"></use></g></g><g><use xlink:href="#ez3vgjnJZ" opacity="1" fill="#000000" fill-opacity="1"></use><g><use xlink:href="#ez3vgjnJZ" opacity="1" fill-opacity="0" stroke="#000000" stroke-width="1" stroke-opacity="0"></use></g></g><g><use xlink:href="#atLuxMWzT" opacity="1" fill="#000000" fill-opacity="1"></use><g><use xlink:href="#atLuxMWzT" opacity="1" fill-opacity="0" stroke="#000000" stroke-width="1" stroke-opacity="0"></use></g></g><g><use xlink:href="#c3o598EIs" opacity="1" fill="#000000" fill-opacity="1"></use><g><use xlink:href="#c3o598EIs" opacity="1" fill-opacity="0" stroke="#000000" stroke-width="1" stroke-opacity="0"></use></g></g></g></g></svg>