<?xml version="1.0" encoding="iso-8859-1"?>
<!-- Generator: Adobe Illustrator 19.0.0, SVG Export Plug-In . SVG Version: 6.00 Build 0)  -->
<svg version="1.1" id="Capa_1" xmlns="http://www.w3.org/2000/svg" xmlns:xlink="http://www.w3.org/1999/xlink" x="0px" y="0px"
	 viewBox="0 0 480 480" style="enable-background:new 0 0 480 480;" xml:space="preserve">
<g>
	<g>
		<path d="M240,0C107.452,0,0,107.452,0,240s107.452,240,240,240s240-107.452,240-240C479.85,107.514,372.486,0.15,240,0z M240,464
			C116.288,464,16,363.712,16,240S116.288,16,240,16s224,100.288,224,224C463.859,363.653,363.653,463.859,240,464z"/>
	</g>
</g>
<g>
	<g>
		<path d="M240,56C138.38,56,56,138.38,56,240s82.38,184,184,184s184-82.38,184-184C423.885,138.427,341.573,56.115,240,56z
			 M240,408c-92.784,0-168-75.216-168-168S147.216,72,240,72s168,75.216,168,168C407.894,332.74,332.74,407.894,240,408z"/>
	</g>
</g>
<g>
	<g>
		<path d="M219.25,168.689c-0.001,0-0.001-0.001-0.002-0.001c-4.038-1.794-8.765,0.025-10.559,4.062
			c0,0.001-0.001,0.001-0.001,0.002l-32,72c-1.794,4.038,0.026,8.766,4.064,10.56c4.038,1.794,8.766-0.026,10.56-4.064l32-72
			C225.106,175.21,223.287,170.483,219.25,168.689z"/>
	</g>
</g>
<g>
	<g>
		<path d="M259.25,168.689c-0.001,0-0.001-0.001-0.002-0.001c-4.038-1.794-8.765,0.025-10.559,4.062
			c0,0.001-0.001,0.001-0.001,0.002l-32,72c-1.794,4.038,0.026,8.766,4.064,10.56c4.038,1.794,8.766-0.026,10.56-4.064l32-72
			C265.106,175.21,263.287,170.483,259.25,168.689z"/>
	</g>
</g>
<g>
	<g>
		<path d="M299.25,168.689c-0.001,0-0.001-0.001-0.002-0.001c-4.038-1.794-8.765,0.025-10.559,4.062
			c0,0.001-0.001,0.001-0.001,0.002l-32,72c-1.794,4.038,0.026,8.766,4.064,10.56c4.038,1.794,8.766-0.026,10.56-4.064l32-72
			C305.106,175.21,303.287,170.483,299.25,168.689z"/>
	</g>
</g>
<g>
	<g>
		<path d="M352,216c-1.051-53.957-45.56-96.892-99.52-96c-2.152,0-4.288,0.088-6.4,0.232c-0.628-0.155-1.273-0.233-1.92-0.232h-41.6
			c-37.945-0.516-70.073,27.879-74.224,65.6c-12.291-4.697-26.062,1.459-30.759,13.749c-2.562,6.703-1.966,14.204,1.623,20.419
			c-11.174,6.989-14.566,21.713-7.577,32.887c1.919,3.067,4.509,5.658,7.577,7.577c-2.073,3.577-3.176,7.634-3.2,11.768
			c0,13.255,10.745,24,24,24c2.732-0.027,5.438-0.524,8-1.472V300c0.622,33.691,28.388,60.526,62.08,60
			c9.006,0.016,17.912-1.894,26.12-5.6c-0.389,15.7,5.267,30.951,15.8,42.6c2.759,3.451,7.794,4.011,11.244,1.252
			c0.462-0.37,0.882-0.789,1.252-1.252c11.204-12.221,16.856-28.531,15.616-45.064c-0.16-1.264-0.488-2.4-0.744-3.592
			c9.882,6.676,21.327,10.675,33.216,11.608c0.292,0.032,0.586,0.048,0.88,0.048c4.418,0,8-3.581,8.001-7.999
			c0-0.294-0.016-0.588-0.049-0.881c-0.713-16.562-8.241-32.092-20.8-42.912c-0.064-0.048-0.128-0.072-0.192-0.12
			C322.198,296.862,351.431,259.252,352,216z M104,240c0-4.418,3.582-8,8-8s8,3.582,8,8s-3.582,8-8,8S104,244.418,104,240z M120,280
			c-4.418,0-8-3.582-8-8s3.582-8,8-8s8,3.582,8,8S124.418,280,120,280z M120,216c-4.418,0-8-3.582-8-8s3.582-8,8-8s8,3.582,8,8
			S124.418,216,120,216z M238.224,377.992c-4.573-7.063-6.69-15.436-6.024-23.824c0.694-5.318,2.771-10.36,6.024-14.624
			c3.252,4.264,5.326,9.307,6.016,14.624C244.913,362.555,242.798,370.93,238.224,377.992z M283.536,342.096
			c-8.227-1.76-15.642-6.187-21.096-12.592c-3.274-4.249-5.374-9.284-6.088-14.6c5.313,0.718,10.344,2.817,14.592,6.088
			C277.349,326.449,281.776,333.867,283.536,342.096z M252.48,296c-2.632,0-5.224-0.16-7.8-0.384
			c-2.14-0.207-4.271,0.472-5.896,1.88c-1.633,1.391-2.639,3.38-2.792,5.52c-2.867,25.336-25.73,43.551-51.066,40.685
			C162.407,341.153,145.068,322.637,144,300V192c0.76-31.611,26.946-56.653,58.56-56h39.088c1.027,0.355,2.119,0.483,3.2,0.376
			c2.512-0.216,5.048-0.376,7.616-0.376c45.134-0.911,82.496,34.869,83.536,80C334.96,261.125,297.608,296.903,252.48,296z"/>
	</g>
</g>
<g>
	<g>
		<path d="M360.16,288h-0.08c-4.44,0.022-8.022,3.64-8,8.08s3.64,8.022,8.08,8s8.022-3.64,8-8.08
			C368.138,291.591,364.569,288.022,360.16,288z"/>
	</g>
</g>
<g>
	<g>
		<path d="M360.16,320h-0.08c-4.44,0.022-8.022,3.64-8,8.08s3.64,8.022,8.08,8s8.022-3.64,8-8.08
			C368.138,323.591,364.569,320.022,360.16,320z"/>
	</g>
</g>
<g>
	<g>
		<path d="M360.16,256h-0.08c-4.403,0.022-7.96,3.597-7.96,8c0,4.418,3.582,8,8,8s8-3.582,8-8
			C368.12,259.597,364.563,256.022,360.16,256z"/>
	</g>
</g>
<g>
	<g>
		<path d="M336.16,304h-0.08c-4.44,0.022-8.022,3.64-8,8.08s3.64,8.022,8.08,8s8.022-3.64,8-8.08
			C344.138,307.591,340.569,304.022,336.16,304z"/>
	</g>
</g>
<g>
	<g>
		<rect x="376" y="232" width="16" height="16"/>
	</g>
</g>
<g>
	<g>
		<rect x="368" y="200" width="16" height="16"/>
	</g>
</g>
<g>
</g>
<g>
</g>
<g>
</g>
<g>
</g>
<g>
</g>
<g>
</g>
<g>
</g>
<g>
</g>
<g>
</g>
<g>
</g>
<g>
</g>
<g>
</g>
<g>
</g>
<g>
</g>
<g>
</g>
</svg>
