<?xml version="1.0" encoding="UTF-8" standalone="no"?>
<!DOCTYPE svg PUBLIC "-//W3C//DTD SVG 1.1//EN" "http://www.w3.org/Graphics/SVG/1.1/DTD/svg11.dtd">
<svg version="1.1" xmlns="http://www.w3.org/2000/svg" xmlns:xlink="http://www.w3.org/1999/xlink" preserveAspectRatio="xMidYMid meet" viewBox="0 0 109.95 512" width="109.95" height="512"><defs><path d="M82.46 15.01C82.46 22.01 82.46 57.01 82.46 120.03L64.14 120.03C64.14 57.01 64.14 22 64.14 15C64.14 6.72 60.04 0 54.97 0C49.91 0 45.81 6.72 45.81 15C45.81 22 45.81 57.01 45.81 120.03L27.49 120.03C27.49 57.01 27.49 22.01 27.49 15.01C27.49 6.72 23.38 0 18.32 0C13.26 0 9.16 6.72 9.16 15.01C9.16 30.01 9.16 150.03 9.16 165.03C9.16 189.85 21.49 210.04 36.65 210.04C36.65 237.24 36.65 454.8 36.65 481.99C36.65 498.54 44.87 512 54.97 512C65.08 512 73.3 498.54 73.3 481.99C73.3 454.8 73.3 237.24 73.3 210.04C88.46 210.04 100.79 189.85 100.79 165.03C100.79 150.03 100.79 30.01 100.79 15.01C100.79 6.72 96.69 0 91.63 0C86.57 0 82.46 6.72 82.46 15.01Z" id="c55F0RFrOm"></path></defs><g><g><g><use xlink:href="#c55F0RFrOm" opacity="1" fill="#000000" fill-opacity="1"></use><g><use xlink:href="#c55F0RFrOm" opacity="1" fill-opacity="0" stroke="#000000" stroke-width="1" stroke-opacity="0"></use></g></g></g></g></svg>